<svg id="visual" viewBox="0 0 960 540" width="960" height="540" xmlns="http://www.w3.org/2000/svg" xmlns:xlink="http://www.w3.org/1999/xlink" version="1.1"><path d="M0 17L96 17L96 28L192 28L192 17L288 17L288 33L384 33L384 33L480 33L480 33L576 33L576 17L672 17L672 28L768 28L768 39L864 39L864 39L960 39L960 39L960 0L960 0L864 0L864 0L768 0L768 0L672 0L672 0L576 0L576 0L480 0L480 0L384 0L384 0L288 0L288 0L192 0L192 0L96 0L96 0L0 0Z" fill="#d744db"></path><path d="M0 44L96 44L96 55L192 55L192 33L288 33L288 60L384 60L384 60L480 60L480 50L576 50L576 39L672 39L672 39L768 39L768 50L864 50L864 50L960 50L960 55L960 37L960 37L864 37L864 37L768 37L768 26L672 26L672 15L576 15L576 31L480 31L480 31L384 31L384 31L288 31L288 15L192 15L192 26L96 26L96 15L0 15Z" fill="#ce44dc"></path><path d="M0 125L96 125L96 190L192 190L192 179L288 179L288 174L384 174L384 141L480 141L480 136L576 136L576 152L672 152L672 179L768 179L768 141L864 141L864 217L960 217L960 131L960 53L960 48L864 48L864 48L768 48L768 37L672 37L672 37L576 37L576 48L480 48L480 58L384 58L384 58L288 58L288 31L192 31L192 53L96 53L96 42L0 42Z" fill="#c543dc"></path><path d="M0 185L96 185L96 239L192 239L192 201L288 201L288 201L384 201L384 179L480 179L480 185L576 185L576 185L672 185L672 228L768 228L768 185L864 185L864 244L960 244L960 168L960 129L960 215L864 215L864 139L768 139L768 177L672 177L672 150L576 150L576 134L480 134L480 139L384 139L384 172L288 172L288 177L192 177L192 188L96 188L96 123L0 123Z" fill="#bc43dd"></path><path d="M0 249L96 249L96 266L192 266L192 233L288 233L288 244L384 244L384 206L480 206L480 233L576 233L576 228L672 228L672 276L768 276L768 239L864 239L864 293L960 293L960 217L960 166L960 242L864 242L864 183L768 183L768 226L672 226L672 183L576 183L576 183L480 183L480 177L384 177L384 199L288 199L288 199L192 199L192 237L96 237L96 183L0 183Z" fill="#b243dd"></path><path d="M0 266L96 266L96 287L192 287L192 249L288 249L288 271L384 271L384 228L480 228L480 255L576 255L576 260L672 260L672 303L768 303L768 260L864 260L864 314L960 314L960 233L960 215L960 291L864 291L864 237L768 237L768 274L672 274L672 226L576 226L576 231L480 231L480 204L384 204L384 242L288 242L288 231L192 231L192 264L96 264L96 247L0 247Z" fill="#a843dd"></path><path d="M0 309L96 309L96 320L192 320L192 287L288 287L288 314L384 314L384 260L480 260L480 276L576 276L576 293L672 293L672 341L768 341L768 287L864 287L864 341L960 341L960 266L960 231L960 312L864 312L864 258L768 258L768 301L672 301L672 258L576 258L576 253L480 253L480 226L384 226L384 269L288 269L288 247L192 247L192 285L96 285L96 264L0 264Z" fill="#9e43dd"></path><path d="M0 330L96 330L96 341L192 341L192 314L288 314L288 330L384 330L384 271L480 271L480 303L576 303L576 320L672 320L672 352L768 352L768 314L864 314L864 357L960 357L960 287L960 264L960 339L864 339L864 285L768 285L768 339L672 339L672 291L576 291L576 274L480 274L480 258L384 258L384 312L288 312L288 285L192 285L192 318L96 318L96 307L0 307Z" fill="#9343dd"></path><path d="M0 352L96 352L96 363L192 363L192 347L288 347L288 347L384 347L384 303L480 303L480 330L576 330L576 347L672 347L672 379L768 379L768 341L864 341L864 379L960 379L960 320L960 285L960 355L864 355L864 312L768 312L768 350L672 350L672 318L576 318L576 301L480 301L480 269L384 269L384 328L288 328L288 312L192 312L192 339L96 339L96 328L0 328Z" fill="#8843dd"></path><path d="M0 374L96 374L96 390L192 390L192 390L288 390L288 374L384 374L384 341L480 341L480 363L576 363L576 374L672 374L672 411L768 411L768 374L864 374L864 401L960 401L960 336L960 318L960 377L864 377L864 339L768 339L768 377L672 377L672 345L576 345L576 328L480 328L480 301L384 301L384 345L288 345L288 345L192 345L192 361L96 361L96 350L0 350Z" fill="#7c44dc"></path><path d="M0 487L96 487L96 455L192 455L192 449L288 449L288 449L384 449L384 471L480 471L480 476L576 476L576 449L672 449L672 492L768 492L768 498L864 498L864 482L960 482L960 471L960 334L960 399L864 399L864 372L768 372L768 409L672 409L672 372L576 372L576 361L480 361L480 339L384 339L384 372L288 372L288 388L192 388L192 388L96 388L96 372L0 372Z" fill="#7044dc"></path><path d="M0 541L96 541L96 541L192 541L192 541L288 541L288 541L384 541L384 541L480 541L480 541L576 541L576 541L672 541L672 541L768 541L768 541L864 541L864 541L960 541L960 541L960 469L960 480L864 480L864 496L768 496L768 490L672 490L672 447L576 447L576 474L480 474L480 469L384 469L384 447L288 447L288 447L192 447L192 453L96 453L96 485L0 485Z" fill="#6244db"></path></svg>